<svg width="80" height="80" viewBox="0 0 80 80" fill="none" xmlns="http://www.w3.org/2000/svg">
<rect width="80" height="80" fill="white"/>
<g clip-path="url(#clip0_940_8907)">
<path fill-rule="evenodd" clip-rule="evenodd" d="M47.2637 22.7598C48.9872 24.0287 49.9625 25.809 50.1898 28.1007H61.9796C61.9228 24.6348 60.9947 21.5855 59.1955 18.9529C57.3963 16.3204 54.8773 14.2654 51.6387 12.7882C48.419 11.3109 44.65 10.5723 40.3319 10.5723C36.0894 10.5723 32.3016 11.3109 28.9682 12.7882C25.6349 14.2654 23.0118 16.3204 21.0989 18.9529C19.205 21.5855 18.2675 24.6632 18.2864 28.1859C18.2675 32.4851 19.6785 35.9037 22.5194 38.4416C25.3603 40.9795 29.2334 42.845 34.1387 44.0382L40.4739 45.6291C42.5951 46.1404 44.3849 46.7086 45.8432 47.3336C47.3205 47.9586 48.4379 48.7162 49.1955 49.6064C49.972 50.4965 50.3603 51.595 50.3603 52.9018C50.3603 54.3033 49.9341 55.5439 49.0819 56.6234C48.2296 57.7029 47.0269 58.5457 45.4739 59.1518C43.9398 59.7579 42.1311 60.0609 40.0478 60.0609C37.9266 60.0609 36.0232 59.7389 34.3375 59.095C32.8436 58.5008 31.6159 57.6555 30.6545 56.5591C30.1549 60.8172 26.5343 64.121 22.1419 64.121C21.9891 64.121 21.8373 64.117 21.6864 64.1091C23.3823 65.8251 25.4592 67.1935 27.9171 68.2143C31.4019 69.6537 35.4929 70.3734 40.1898 70.3734C44.9247 70.3734 48.9682 69.6632 52.3205 68.2427C55.6917 66.8033 58.2675 64.7863 60.0478 62.1916C61.847 59.5779 62.7561 56.4908 62.775 52.9302C62.7561 50.506 62.311 48.3564 61.4398 46.4814C60.5875 44.6064 59.3849 42.9776 57.8319 41.595C56.2788 40.2124 54.4417 39.0476 52.3205 38.1007C50.1993 37.1537 47.8697 36.3961 45.3319 35.8279L40.1046 34.5779C38.8357 34.2939 37.6425 33.9529 36.525 33.5552C35.4076 33.1386 34.4228 32.6556 33.5705 32.1064C32.7182 31.5382 32.0459 30.8658 31.5535 30.0893C31.08 29.3128 30.8622 28.4037 30.9001 27.362C30.9001 26.112 31.2599 24.9946 31.9796 24.0098C32.7182 23.0249 33.7788 22.2579 35.1614 21.7086C36.544 21.1404 38.2391 20.8564 40.2466 20.8564C43.2012 20.8564 45.5402 21.4908 47.2637 22.7598Z" fill="black"/>
<circle cx="22.286" cy="55.7723" r="7.42857" fill="#FF0D59"/>
</g>
<defs>
<clipPath id="clip0_940_8907">
<rect width="62.8571" height="62.8571" fill="white" transform="translate(8 8)"/>
</clipPath>
</defs>
</svg>
