<svg width="24" height="24" viewBox="0 0 24 24" fill="none" xmlns="http://www.w3.org/2000/svg">
<path d="M12.0012 22.8002C17.9658 22.8002 22.8012 17.9649 22.8012 12.0002C22.8012 6.03552 17.9658 1.2002 12.0012 1.2002C6.0365 1.2002 1.20117 6.03552 1.20117 12.0002C1.20117 17.9649 6.0365 22.8002 12.0012 22.8002Z" fill="white"/>
<path d="M10.0182 16.9459C9.66894 16.9459 9.72842 16.8155 9.60988 16.4785L8.58008 13.0933L16.4982 8.40039" fill="#A0CFF8"/>
<path d="M10.0176 16.9517C10.2897 16.9517 10.4082 16.8273 10.5559 16.6796L11.9941 15.2773L10.1952 14.1943" fill="#5586A5"/>
<path d="M10.2027 14.2025L14.5522 17.4159C15.0492 17.688 15.4103 17.5463 15.5289 16.9544L17.2982 8.60422C17.4817 7.87648 17.0202 7.54489 16.5469 7.76384L6.14343 11.7763C5.43341 12.0602 5.43932 12.4568 6.01307 12.6344L8.68185 13.4689L14.8602 9.56905C15.15 9.39144 15.4226 9.48636 15.1977 9.68169" fill="#4DA1FF"/>
</svg>
