<svg width="28" height="28" viewBox="0 0 28 28" fill="none" xmlns="http://www.w3.org/2000/svg">
<g clip-path="url(#clip0_997_9235)">
<path fill-rule="evenodd" clip-rule="evenodd" d="M9.9 12.1L8.5 13.5L13 18L23 8L21.6 6.6L13 15.2L9.9 12.1ZM22 14C22 18.4 18.4 22 14 22C9.6 22 6 18.4 6 14C6 9.6 9.6 6 14 6C14.8 6 15.5 6.1 16.2 6.3L17.8 4.7C16.6 4.3 15.3 4 14 4C8.5 4 4 8.5 4 14C4 19.5 8.5 24 14 24C19.5 24 24 19.5 24 14H22Z" fill="#22C55E"/>
</g>
<defs>
<clipPath id="clip0_997_9235">
<rect width="20" height="20" fill="white" transform="translate(4 4)"/>
</clipPath>
</defs>
</svg>
