<svg width="850" height="850" viewBox="0 0 850 850" fill="none" xmlns="http://www.w3.org/2000/svg">
<path d="M114.148 304.618L114.157 413.945L301.174 520.619L395.091 466.25L394.931 358.212L207.632 250.455L114.148 304.618Z" fill="#FF6600"/>
<path d="M114.148 304.618L301.01 412.375L301.174 520.619L114.157 413.945L114.148 304.618Z" fill="#EB3400"/>
<path d="M394.929 358.212L301.008 412.375L301.172 520.619L395.089 466.25L394.929 358.212Z" fill="#821D00"/>
<path d="M160.973 331.555L254.458 277.392L348.106 331.269L254.623 385.433L160.973 331.555Z" fill="white"/>
<path d="M218.395 263.576L218.551 329.037L258.319 351.869L258.164 286.965L218.395 263.576Z" fill="#E0904A"/>
<path d="M258.164 286.965L298.351 263.391L297.98 328.849L258.319 351.869L258.164 286.965Z" fill="#BF6A3F"/>
<path d="M155.224 150.567L155.047 269.974L258.371 329.826L361.867 270.273L362.044 150.868L258.721 91.0156L155.224 150.567Z" fill="#FFD97D"/>
<path d="M258.54 210.418L258.367 329.826L361.863 270.273L362.04 150.868L258.54 210.418Z" fill="#E0904A"/>
<path d="M144.997 144.238L144.824 185.611C144.824 185.611 177.227 205.848 216.483 185.91C216.483 185.91 225.474 217.77 258.399 243.866L294.868 222.244L294.511 308.973L368.925 266.42L369.424 145.168L259.083 78.8867L144.997 144.238Z" fill="#24170C"/>
<path d="M145.004 144.238L258.544 210.418L369.433 145.168L259.09 78.8867L145.004 144.238Z" fill="#3B2F25"/>
<path d="M160.973 331.555L207.963 466.766L254.623 385.433L160.973 331.555Z" fill="#D6D6D6"/>
<path d="M454.91 304.618L454.92 413.945L641.934 520.619L735.851 466.25L735.693 358.212L548.392 250.455L454.91 304.618Z" fill="#2DB357"/>
<path d="M454.91 304.618L641.771 412.375L641.934 520.619L454.92 413.945L454.91 304.618Z" fill="#0E834C"/>
<path d="M735.691 358.212L641.77 412.375L641.932 520.619L735.849 466.25L735.691 358.212Z" fill="#045D32"/>
<path d="M501.727 331.555L595.21 277.392L688.863 331.269L595.378 385.433L501.727 331.555Z" fill="white"/>
<path d="M559.148 263.576L559.307 329.037L599.074 351.869L598.919 286.965L559.148 263.576Z" fill="#E0904A"/>
<path d="M598.922 286.965L639.108 263.391L638.738 328.849L599.077 351.869L598.922 286.965Z" fill="#BF6A3F"/>
<path d="M495.98 150.567L495.805 269.974L599.127 329.826L702.625 270.273L702.803 150.868L599.476 91.0156L495.98 150.567Z" fill="#FFD97D"/>
<path d="M599.294 210.418L599.121 329.826L702.618 270.273L702.797 150.868L599.294 210.418Z" fill="#E0904A"/>
<path d="M485.759 144.238L485.586 185.611C485.586 185.611 517.99 205.848 557.248 185.91C557.248 185.91 566.237 217.77 599.161 243.866L635.631 222.244L635.272 308.973L709.688 266.42L710.188 145.168L599.842 78.8867L485.759 144.238Z" fill="#24170C"/>
<path d="M485.762 144.238L599.299 210.418L710.189 145.168L599.845 78.8867L485.762 144.238Z" fill="#3B2F25"/>
<path d="M501.727 331.555L548.719 466.766L595.378 385.433L501.727 331.555Z" fill="#D6D6D6"/>
<path d="M454.91 555.113L454.92 664.44L641.934 771.112L735.851 716.746L735.693 608.708L548.392 500.951L454.91 555.113Z" fill="#FFA511"/>
<path d="M454.91 555.113L641.771 662.872L641.934 771.112L454.92 664.44L454.91 555.113Z" fill="#EB6B24"/>
<path d="M735.691 608.708L641.77 662.872L641.932 771.112L735.849 716.746L735.691 608.708Z" fill="#9E2D00"/>
<path d="M501.727 582.052L595.21 527.886L688.863 581.763L595.378 635.929L501.727 582.052Z" fill="white"/>
<path d="M559.148 514.07L559.307 579.535L599.074 602.366L598.919 537.458L559.148 514.07Z" fill="#E0904A"/>
<path d="M598.922 537.458L639.108 513.887L638.738 579.345L599.077 602.366L598.922 537.458Z" fill="#BF6A3F"/>
<path d="M495.98 401.063L495.805 520.47L599.127 580.32L702.625 520.771L702.803 401.363L599.476 341.513L495.98 401.063Z" fill="#FFD97D"/>
<path d="M599.294 460.914L599.121 580.32L702.618 520.771L702.797 401.363L599.294 460.914Z" fill="#E0904A"/>
<path d="M485.759 394.733L485.586 436.105C485.586 436.105 517.99 456.343 557.248 436.402C557.248 436.402 566.237 468.264 599.161 494.362L635.631 472.736L635.272 559.467L709.688 516.913L710.188 395.662L599.844 329.379L485.759 394.733Z" fill="#24170C"/>
<path d="M485.762 394.733L599.299 460.914L710.189 395.664L599.845 329.381L485.762 394.733Z" fill="#3B2F25"/>
<path d="M501.727 582.052L548.719 717.258L595.378 635.929L501.727 582.052Z" fill="#D6D6D6"/>
<path d="M114.148 555.113L114.157 664.44L301.174 771.112L395.091 716.746L394.931 608.708L207.632 500.951L114.148 555.113Z" fill="#72EEF7"/>
<path d="M114.148 555.113L301.01 662.872L301.174 771.112L114.157 664.44L114.148 555.113Z" fill="#3CA5AF"/>
<path d="M394.929 608.708L301.008 662.872L301.172 771.112L395.089 716.746L394.929 608.708Z" fill="#304E75"/>
<path d="M160.973 582.052L254.458 527.886L348.106 581.763L254.623 635.929L160.973 582.052Z" fill="white"/>
<path d="M218.395 514.07L218.551 579.535L258.319 602.366L258.164 537.458L218.395 514.07Z" fill="#E0904A"/>
<path d="M258.164 537.458L298.351 513.887L297.98 579.345L258.319 602.366L258.164 537.458Z" fill="#BF6A3F"/>
<path d="M155.224 401.063L155.047 520.47L258.371 580.32L361.867 520.771L362.044 401.363L258.721 341.513L155.224 401.063Z" fill="#FFD97D"/>
<path d="M258.54 460.914L258.367 580.32L361.863 520.771L362.04 401.363L258.54 460.914Z" fill="#E0904A"/>
<path d="M144.997 394.733L144.824 436.105C144.824 436.105 177.227 456.343 216.483 436.402C216.483 436.402 225.474 468.264 258.399 494.362L294.868 472.736L294.511 559.467L368.925 516.913L369.424 395.662L259.082 329.379L144.997 394.733Z" fill="#24170C"/>
<path d="M145.004 394.733L258.544 460.914L369.433 395.664L259.09 329.381L145.004 394.733Z" fill="#3B2F25"/>
<path d="M160.973 582.052L207.963 717.258L254.623 635.929L160.973 582.052Z" fill="#D6D6D6"/>
</svg>
