<svg width="850" height="850" viewBox="0 0 850 850" fill="none" xmlns="http://www.w3.org/2000/svg">
<path d="M413.371 104.828L477.092 67.5781L540.823 104.369L477.092 141.62L413.371 104.828Z" fill="#FF5500"/>
<path d="M413.371 104.828V178.412L477.092 215.203V141.621L413.371 104.828Z" fill="#EB3400"/>
<path d="M477.094 141.621L540.825 104.37V178.412L477.094 215.203V141.621Z" fill="#821D00"/>
<path d="M94.9922 249.421L170.323 205.389L245.654 248.882L170.323 292.915L94.9922 249.421Z" fill="#2DB357"/>
<path d="M94.9922 249.421V336.406L170.323 379.9V292.915L94.9922 249.421Z" fill="#238A43"/>
<path d="M170.324 292.915L245.655 248.882V336.406L170.324 379.9V292.915Z" fill="#16572A"/>
<path d="M649.669 252.973C647.933 252.973 646.171 252.525 644.56 251.583L512.407 174.139C507.579 171.311 505.963 165.106 508.789 160.282C511.613 155.457 517.814 153.831 522.648 156.664L654.803 234.109C659.629 236.936 661.247 243.139 658.417 247.965C656.535 251.181 653.148 252.973 649.669 252.973Z" fill="#FFDC13"/>
<path d="M609.668 226.182L689.583 179.472L769.497 225.61L689.583 272.324L609.668 226.182Z" fill="#72EEF7"/>
<path d="M609.668 226.181V318.462L689.583 364.599V272.324L609.668 226.181Z" fill="#2FBBC5"/>
<path d="M689.582 272.323L769.497 225.609V318.461L689.582 364.598V272.323Z" fill="#304E75"/>
<path d="M495.125 395.147C491.634 395.147 488.237 393.342 486.36 390.106C483.551 385.269 485.194 379.071 490.03 376.263L635.346 291.953C640.178 289.142 646.379 290.787 649.187 295.622C651.995 300.458 650.352 306.657 645.515 309.463L500.201 393.777C498.604 394.707 496.849 395.147 495.125 395.147Z" fill="#FFDC13"/>
<path d="M390.223 430.159C388.514 430.159 386.782 429.727 385.191 428.813L205.903 326.057C201.055 323.272 199.377 317.085 202.162 312.233C204.944 307.383 211.131 305.706 215.987 308.491L395.274 411.248C400.125 414.033 401.801 420.22 399.015 425.072C397.146 428.335 393.733 430.159 390.223 430.159Z" fill="#FFDC13"/>
<path d="M312.27 354.223L427.415 286.922L542.558 353.398L427.415 420.706L312.27 354.223Z" fill="#FFDC13"/>
<path d="M312.27 354.223V487.184L427.415 553.657V420.707L312.27 354.223Z" fill="#FFA511"/>
<path d="M427.414 420.707L542.557 353.398V487.184L427.414 553.657V420.707Z" fill="#D74F00"/>
<path d="M647.971 555.32C646.286 555.32 644.581 554.895 643.011 554.012L485.968 464.381C481.096 461.634 479.368 455.46 482.114 450.585C484.86 445.714 491.039 443.99 495.907 446.735L652.95 536.366C657.82 539.111 659.549 545.287 656.802 550.158C654.945 553.464 651.507 555.32 647.971 555.32Z" fill="#FFDC13"/>
<path d="M593.383 521.718L670.516 476.636L747.646 521.166L670.516 566.252L593.383 521.718Z" fill="#2DB357"/>
<path d="M593.383 521.718V610.78L670.516 655.307V566.252L593.383 521.718Z" fill="#238A43"/>
<path d="M670.516 566.252L747.645 521.166V610.78L670.516 655.307V566.252Z" fill="#045D32"/>
<path d="M199.421 563.885C195.895 563.885 192.47 562.041 190.607 558.758C187.841 553.896 189.545 547.713 194.406 544.95L364.27 448.424C369.133 445.663 375.315 447.364 378.074 452.229C380.84 457.088 379.138 463.271 374.276 466.032L204.416 562.558C202.835 563.456 201.117 563.885 199.421 563.885Z" fill="#FFDC13"/>
<path d="M80.5039 543.348L160.417 496.632L240.334 542.772L160.417 589.487L80.5039 543.348Z" fill="#72EEF7"/>
<path d="M80.5039 543.348V635.625L160.417 681.762V589.487L80.5039 543.348Z" fill="#2FBBC5"/>
<path d="M160.418 589.487L240.335 542.772V635.625L160.418 681.762V589.487Z" fill="#304E75"/>
<path d="M353.74 712.153C351.995 712.153 350.227 711.702 348.612 710.753L200.481 623.558C195.661 620.719 194.053 614.514 196.887 609.693C199.728 604.873 205.927 603.263 210.755 606.103L358.886 693.301C363.705 696.137 365.314 702.346 362.478 707.163C360.588 710.372 357.21 712.153 353.74 712.153Z" fill="#FFDC13"/>
<path d="M284.348 662.204L353.756 621.633L423.159 661.703L353.756 702.276L284.348 662.204Z" fill="#FF5500"/>
<path d="M284.348 662.204V742.353L353.756 782.422V702.276L284.348 662.204Z" fill="#EB3400"/>
<path d="M353.754 702.276L423.157 661.703V742.353L353.754 782.422V702.276Z" fill="#821D00"/>
</svg>
