<svg width="37" height="37" viewBox="0 0 37 37" fill="none" xmlns="http://www.w3.org/2000/svg">
<g clip-path="url(#clip0_967_9959)">
<path fill-rule="evenodd" clip-rule="evenodd" d="M30.7792 7.5L33.8975 10.1611C34.1632 10.4563 34.3792 11.0179 34.3792 11.4161V31.5761C34.3792 31.9735 34.1632 32.5351 33.8968 32.8303L31.9809 34.9565C31.7152 35.2517 31.1767 35.4914 30.7792 35.4914H6.29922C5.90178 35.4914 5.36322 35.2524 5.09682 34.9572L3.1809 32.831C2.91522 32.5358 2.69922 31.9735 2.69922 31.5761V11.4161C2.69922 11.0179 2.91522 10.4563 3.1809 10.1611L6.29922 7.5H30.7792ZM22.1383 18.5679H22.8583C23.6503 18.5679 24.2983 19.2159 24.2983 20.0079V27.2079C24.2983 27.9999 23.6503 28.6479 22.8583 28.6479H14.2183C13.4263 28.6479 12.7783 27.9999 12.7783 27.2079V20.0079C12.7783 19.2159 13.4263 18.5679 14.2183 18.5679H14.9383V17.1279C14.9383 15.1119 16.5223 13.5279 18.5383 13.5279C20.5543 13.5279 22.1383 15.1119 22.1383 17.1279V18.5679ZM17.0983 23.6079C17.0983 24.3999 17.7463 25.0479 18.5383 25.0479C19.3303 25.0479 19.9783 24.3999 19.9783 23.6079C19.9783 22.8159 19.3303 22.1679 18.5383 22.1679C17.7463 22.1679 17.0983 22.8159 17.0983 23.6079ZM16.3063 17.1279V18.5679H20.7703V17.1279C20.7703 15.9039 19.7623 14.8959 18.5383 14.8959C17.3143 14.8959 16.3063 15.9039 16.3063 17.1279Z" fill="#89C5DF"/>
<path d="M30.7163 1.65164C30.7163 1.2542 30.3938 0.931641 29.9963 0.931641H6.95633C6.55889 0.931641 6.23633 1.2542 6.23633 1.65164V5.77508H30.7163V1.65164Z" fill="#89C5DF"/>
</g>
<defs>
<clipPath id="clip0_967_9959">
<rect width="36" height="36" fill="white" transform="translate(0.537109 0.210938)"/>
</clipPath>
</defs>
</svg>
