<svg width="850" height="850" viewBox="0 0 850 850" fill="none" xmlns="http://www.w3.org/2000/svg">
<path d="M324.403 513.566C272.998 513.441 224.704 493.387 188.416 457.099C113.305 381.988 113.042 260.036 187.828 185.253C223.988 149.091 272.236 129.244 323.68 129.37C375.085 129.495 423.382 149.553 459.674 185.841C495.971 222.138 516.028 270.451 516.141 321.868C516.255 373.3 496.412 421.53 460.258 457.683C424.099 493.846 375.847 513.692 324.403 513.566Z" fill="#FFEA92"/>
<path d="M207.537 438.516H326.362C332.399 438.516 337.441 433.836 337.992 427.722L353.078 260.327H180.824L195.91 427.722C196.461 433.839 201.5 438.516 207.537 438.516Z" fill="#A4C9FF"/>
<path d="M173.954 288.901L171.814 266.452C171.501 263.165 174.192 260.327 177.627 260.327H356.279C359.713 260.327 362.407 263.165 362.092 266.452L359.952 288.901C359.677 291.79 357.157 294.001 354.139 294.001H179.77C176.748 294.001 174.229 291.79 173.954 288.901Z" fill="#4671C6"/>
<path d="M377.898 303.821H404.173V110.674C404.173 105.761 400.19 101.781 395.28 101.781H386.794C381.881 101.781 377.901 105.764 377.901 110.674L377.898 303.821Z" fill="#FFA511"/>
<path d="M363.297 321.362H418.767V300.644C418.767 295.039 414.224 290.496 408.619 290.496H373.445C367.84 290.496 363.297 295.039 363.297 300.644V321.362Z" fill="#FFA511"/>
<path d="M180.598 357.139H233.606C239.931 357.139 245.055 352.014 245.055 345.69V263.358C245.055 257.033 239.931 251.908 233.606 251.908H180.598C174.273 251.908 169.148 257.033 169.148 263.358V345.69C169.148 352.014 174.276 357.139 180.598 357.139Z" fill="#F9CFCF"/>
<path d="M268.421 288.39C274.871 288.39 280.1 283.364 280.1 277.164C280.1 270.965 274.871 265.939 268.421 265.939C261.971 265.939 256.742 270.965 256.742 277.164C256.742 283.364 261.971 288.39 268.421 288.39Z" fill="#D74F00"/>
<path d="M351.616 344.512C354.837 344.512 357.454 341.996 357.454 338.901C357.454 335.806 354.834 333.289 351.616 333.289H326.171C305.946 333.289 288.022 320.212 282.585 301.486L275.495 277.06C274.791 274.642 272.48 272.955 269.872 272.955C269.345 272.955 268.816 273.025 268.301 273.163C266.798 273.567 265.549 274.507 264.784 275.814C264.016 277.121 263.826 278.634 264.245 280.079L271.335 304.504C278.174 328.064 300.723 344.515 326.171 344.515L351.616 344.512Z" fill="#F9CFCF"/>
<path d="M328.262 347.319H453.801V333.736C453.801 321.09 443.548 310.838 430.902 310.838H351.16C338.514 310.838 328.262 321.09 328.262 333.736V347.319Z" fill="#FFA511"/>
<path d="M327.8 438.517H454.272C459.479 438.517 463.539 434.173 462.981 429.198L453.807 347.319H328.265L319.09 429.198C318.533 434.176 322.589 438.517 327.8 438.517Z" fill="#E0EBFC"/>
<path d="M433.374 371.169C435.792 371.169 437.754 373.055 437.754 375.378V438.517H428.996V375.378C428.996 373.055 430.955 371.169 433.374 371.169Z" fill="#A4C9FF"/>
<path d="M415.85 385.202C418.269 385.202 420.231 387.087 420.231 389.411V438.52H411.473V389.411C411.473 387.084 413.432 385.202 415.85 385.202Z" fill="#A4C9FF"/>
<path d="M398.331 399.231C400.749 399.231 402.711 401.117 402.711 403.441V438.517H393.953V403.441C393.95 401.117 395.912 399.231 398.331 399.231Z" fill="#A4C9FF"/>
<path d="M360.382 385.202C362.8 385.202 364.762 387.087 364.762 389.411V438.52H356.004V389.411C356.001 387.084 357.963 385.202 360.382 385.202Z" fill="#A4C9FF"/>
<path d="M342.862 371.169C345.28 371.169 347.243 373.055 347.243 375.378V438.517H338.484V375.378C338.481 373.055 340.444 371.169 342.862 371.169Z" fill="#A4C9FF"/>
<path d="M501.463 451.538L454.102 498.899L633.6 678.398L680.962 631.036L501.463 451.538Z" fill="#E0EBFC"/>
<path d="M633.61 684.522C632.042 684.522 630.478 683.925 629.281 682.728L449.778 503.229C448.63 502.081 447.984 500.522 447.984 498.9C447.984 497.278 448.63 495.719 449.778 494.571L497.142 447.208C499.533 444.817 503.408 444.817 505.799 447.208L685.302 626.707C686.45 627.855 687.096 629.413 687.096 631.036C687.096 632.658 686.45 634.217 685.302 635.364L637.938 682.728C636.741 683.925 635.174 684.522 633.61 684.522ZM462.764 498.9L633.61 669.742L672.316 631.039L501.471 460.197L462.764 498.9Z" fill="#3762CC"/>
<path d="M511.338 134.17C407.598 30.4333 239.18 30.0537 135.903 133.331C32.6255 236.609 33.0051 405.027 136.742 508.766C240.478 612.503 408.896 612.88 512.174 509.605C615.451 406.328 615.075 237.907 511.338 134.17ZM460.258 457.68C424.095 493.843 375.847 513.689 324.403 513.563C272.998 513.438 224.704 493.384 188.416 457.095C113.302 381.988 113.038 260.036 187.825 185.25C223.984 149.087 272.233 129.241 323.677 129.367C375.082 129.492 423.379 149.55 459.67 185.838C495.968 222.135 516.025 270.448 516.138 321.865C516.254 373.297 496.408 421.53 460.258 457.68Z" fill="#72EEF7"/>
<path d="M325.242 592.935C325.028 592.935 324.826 592.935 324.615 592.935C251.992 592.773 183.733 564.417 132.411 513.092C81.0827 461.767 52.7294 393.51 52.5671 320.888C52.4018 248.257 80.4582 180.11 131.572 129.002C237.234 23.3372 409.537 23.7167 515.664 129.841C621.789 235.966 622.162 408.268 516.5 513.93C465.539 564.891 397.635 592.935 325.242 592.935ZM322.842 62.2395C256.624 62.2395 190.526 87.3663 140.229 137.66C91.4389 186.45 64.653 251.511 64.8091 320.86C64.9683 390.219 92.0481 455.415 141.068 504.434C190.088 553.454 255.283 580.534 324.642 580.69C324.838 580.69 325.043 580.69 325.239 580.69C394.365 580.69 459.193 553.92 507.84 505.273C608.726 404.384 608.353 239.85 507.004 138.498C456.181 87.6755 389.452 62.2395 322.842 62.2395Z" fill="#3762CC"/>
<path d="M324.883 519.688C324.715 519.688 324.553 519.688 324.387 519.688C271.354 519.56 221.523 498.869 184.084 461.427C146.605 423.948 125.902 374.101 125.786 321.068C125.669 268.023 146.164 218.253 183.496 180.924C220.813 143.601 270.638 123.106 323.696 123.247C376.726 123.376 426.557 144.067 464.002 181.512C501.45 218.96 522.144 268.804 522.264 321.855C522.38 374.928 501.9 424.704 464.587 462.011C427.38 499.215 377.782 519.688 324.883 519.688ZM324.418 507.443C324.571 507.443 324.73 507.443 324.88 507.443C374.516 507.443 421.034 488.246 455.93 453.354C490.92 418.364 510.129 371.674 510.019 321.883C509.906 272.091 490.488 225.315 455.345 190.169C420.205 155.032 373.438 135.615 323.665 135.492C323.509 135.492 323.35 135.492 323.197 135.492C273.565 135.492 227.046 154.689 192.154 189.581C157.142 224.59 137.924 271.277 138.031 321.041C138.138 370.814 157.571 417.596 192.741 452.77C227.878 487.904 274.642 507.321 324.418 507.443Z" fill="#3762CC"/>
<path d="M779.141 776.574C759.466 796.249 727.571 796.249 707.896 776.574L540.244 608.921C533.95 602.627 533.95 592.418 540.244 586.124L588.688 537.68C594.982 531.386 605.191 531.386 611.485 537.68L779.138 705.332C798.816 725.004 798.816 756.899 779.141 776.574Z" fill="#FFA511"/>
<path d="M743.529 797.423C729.058 797.423 714.591 791.916 703.576 780.902L535.924 613.246C531.724 609.046 529.406 603.459 529.406 597.517C529.406 591.575 531.721 585.989 535.924 581.789L584.368 533.344C593.037 524.672 607.153 524.672 615.822 533.344L783.478 701C805.504 723.029 805.504 758.87 783.478 780.902C772.467 791.916 757.996 797.423 743.529 797.423ZM600.097 539.081C597.537 539.081 594.975 540.054 593.025 542.005L544.581 590.449C542.692 592.338 541.651 594.851 541.651 597.52C541.651 600.193 542.692 602.7 544.581 604.589L712.233 772.244C729.49 789.498 757.568 789.501 774.821 772.244C792.074 754.988 792.074 726.913 774.821 709.66L607.165 542.005C605.218 540.054 602.656 539.081 600.097 539.081Z" fill="#3762CC"/>
<path d="M249.741 793.27H144.128C95.5216 793.27 56.1172 753.865 56.1172 705.259V599.645C56.1172 551.039 95.5216 511.634 144.128 511.634H249.741C298.348 511.634 337.752 551.039 337.752 599.645V705.259C337.752 753.865 298.348 793.27 249.741 793.27Z" fill="#D74F00"/>
<path d="M143.863 762.654C112.213 762.654 86.4648 736.906 86.4648 705.255V599.642C86.4648 567.992 112.213 542.244 143.863 542.244H249.477C281.127 542.244 306.875 567.992 306.875 599.642V705.255C306.875 736.906 281.127 762.654 249.477 762.654H143.863Z" fill="#FFA511"/>
<path d="M249.747 799.392H144.134C92.2269 799.392 50 757.165 50 705.258V599.645C50 547.739 92.2269 505.512 144.134 505.512H249.747C301.653 505.512 343.88 547.739 343.88 599.645V705.258C343.88 757.165 301.653 799.392 249.747 799.392ZM144.134 517.757C98.98 517.757 62.245 554.492 62.245 599.645V705.258C62.245 750.412 98.98 787.147 144.134 787.147H249.747C294.9 787.147 331.635 750.412 331.635 705.258V599.645C331.635 554.492 294.9 517.757 249.747 517.757H144.134Z" fill="#3762CC"/>
<path d="M176.867 738.393C170.285 738.393 163.808 736.119 158.594 731.891L109.532 692.058C101.912 685.868 100.633 674.526 106.676 666.723C112.718 658.92 123.803 657.613 131.426 663.8L175.535 699.613L258.823 574.387C264.296 566.158 275.253 564.021 283.301 569.63C291.343 575.235 293.421 586.451 287.948 594.686L201.106 725.258C196.532 732.133 189.299 736.799 181.266 738.054C179.803 738.28 178.333 738.393 176.867 738.393Z" fill="#2DB357"/>
</svg>
