<svg width="140" height="140" viewBox="0 0 140 140" fill="none" xmlns="http://www.w3.org/2000/svg">
<g clip-path="url(#clip0_952_8989)">
<path opacity="0.2" d="M140 69.9996C140 108.66 108.66 140 70.0004 140C31.3401 140 0 108.66 0 69.9996C0 31.3399 31.3401 0 70.0004 0C108.66 0 140 31.3399 140 69.9996" fill="#F3F3F3"/>
<rect x="20" y="20" width="100" height="100" rx="50" fill="white" fill-opacity="0.9"/>
<path d="M107.5 45.9171L36.6662 74.1671C36.5003 72.7844 36.4169 71.393 36.4162 70.0005C36.3991 64.7549 37.6423 59.582 40.0412 54.9171C42.8258 49.4292 47.0754 44.8193 52.319 41.5982C57.5626 38.377 63.5955 36.6702 69.7495 36.6671C73.5407 36.6589 77.3046 37.3074 80.8745 38.5838" stroke="black" stroke-width="7.49998" stroke-linecap="round" stroke-linejoin="round"/>
<path d="M59.0833 101.417C66.7178 104.125 75.0776 103.962 82.6002 100.956C90.1229 97.9504 96.2934 92.3075 99.9581 85.083C102.357 80.4181 103.601 75.2452 103.583 69.9996C103.585 68.607 103.501 67.2155 103.333 65.833L32.5 94.0827" stroke="black" stroke-width="7.49998" stroke-linecap="round" stroke-linejoin="round"/>
</g>
<defs>
<clipPath id="clip0_952_8989">
<rect width="140" height="140" fill="white"/>
</clipPath>
</defs>
</svg>
